<?xml version="1.0" standalone="no"?>
<!DOCTYPE svg PUBLIC "-//W3C//DTD SVG 20010904//EN"
 "http://www.w3.org/TR/2001/REC-SVG-20010904/DTD/svg10.dtd">
<svg version="1.0" xmlns="http://www.w3.org/2000/svg"
 width="293.000000pt" height="293.000000pt" viewBox="0 0 293.000000 293.000000"
 preserveAspectRatio="xMidYMid meet">
<metadata>
Created by potrace 1.11, written by Peter Selinger 2001-2013
</metadata>
<g transform="translate(0.000000,293.000000) scale(0.100000,-0.100000)"
fill="#000000" stroke="none">
<path d="M1315 2669 c-151 -20 -304 -75 -422 -152 -185 -119 -323 -299 -388
-507 -22 -69 -29 -118 -38 -265 -12 -214 -3 -315 44 -457 l32 -95 -31 -80
c-17 -44 -56 -134 -86 -201 l-56 -121 0 -103 c0 -78 4 -109 16 -126 l16 -23
43 40 c85 79 186 110 355 111 58 1 121 7 140 13 33 12 41 10 125 -30 307 -145
653 -148 944 -8 122 59 197 114 292 211 119 124 196 258 241 425 19 69 23 109
22 229 0 225 -34 335 -178 580 -117 198 -225 311 -395 414 -195 118 -460 174
-676 145z m440 -213 c346 -101 613 -362 707 -691 20 -69 23 -102 22 -240 0
-148 -2 -167 -28 -245 -122 -372 -453 -619 -852 -637 -203 -10 -380 30 -552
123 l-83 45 -26 -21 c-21 -17 -41 -20 -117 -20 -164 -1 -287 -29 -371 -85
l-36 -25 7 37 c8 47 34 114 75 194 17 34 52 117 79 185 l48 123 -29 75 c-115
297 -64 633 134 876 100 123 277 244 433 294 119 39 176 46 339 42 136 -3 173
-8 250 -30z"/>
<path d="M997 1915 c-50 -17 -85 -50 -108 -100 -78 -170 113 -348 281 -262 65
33 102 85 108 151 6 73 -11 117 -62 164 -65 60 -140 76 -219 47z"/>
</g>
</svg>
